<svg width="205" height="89" viewBox="0 0 205 89" fill="none" xmlns="http://www.w3.org/2000/svg">
<path d="M17.3693 75.2718C3.65984 66.5944 -3.7206 48.952 1.89154 33.0135C7.01893 18.4337 23.8827 8.77137 39.0191 8.91516C39.5789 10.2628 39.989 11.6741 40.2412 13.1209C25.2208 10.4033 13.4777 20.5401 8.94427 33.6605C4.34259 46.9749 7.49003 60.656 18.5027 69.24C17.7548 71.1525 17.3787 73.2035 17.3966 75.2718H17.3693Z" fill="#00512F" />
<path d="M51.143 11.5034C69.3108 18.8292 77.0394 39.4264 71.1883 56.3498C63.8966 77.4646 43.0115 84.1146 26.4141 78.924C26.8707 77.4078 27.5379 75.9712 28.394 74.6608C40.8677 78.9312 58.3459 75.7104 64.5793 57.7086C69.1332 44.5379 65.0641 27.4563 52.9181 18.4698C52.8095 16.0419 52.2089 13.6667 51.1566 11.5034H51.143Z" fill="#00512F" />
<path d="M44.8861 34.1057L44.456 34.5946C36.3313 43.4517 20.56 43.1354 25.5918 61.8561C30.5485 56.04 33.2795 55.9538 38.7073 51.8487C44.1351 47.7437 50.1159 41.9204 44.8861 34.1057ZM34.5289 0.898653C34.4965 0.803759 34.4846 0.702415 34.4942 0.602071C34.5038 0.501728 34.5346 0.404937 34.5844 0.318763C34.6342 0.232589 34.7016 0.159217 34.7818 0.10406C34.862 0.0489041 34.9529 0.013355 35.0478 0C51.7955 5.57884 53.0517 22.2866 46.6544 31.7476C56.8955 38.7499 53.4204 50.6122 46.3403 58.3478C38.243 67.1833 19.372 68.4127 24.8818 87.7014C24.9432 87.9099 24.4721 88.485 23.9259 88.2406C16.7708 77.7299 19.3857 69.2394 24.5472 63.1214C11.0835 42.7256 35.0546 28.6131 38.6117 25.5218C42.7833 21.8553 48.7231 10.6904 34.5153 0.913024L34.5289 0.898653Z" fill="#E36F1E" />
<path d="M91.1035 26.3271V31.223C92.6519 29.7023 94.4165 28.4458 96.3334 27.499C98.1257 26.7304 100.044 26.342 101.98 26.3559C107.442 26.3559 111.081 28.642 113.259 33.3654C117.355 28.4336 120.939 26.3559 125.63 26.3559C132.764 26.3559 137.858 31.2949 137.858 38.8076V59.9871H128.006V40.6696C128.006 35.9463 125.828 33.2935 122.23 33.2935C119.376 33.2935 116.727 35.2274 114.481 38.8795V59.9871H104.629V40.4539C104.629 35.0836 101.57 33.2647 98.6478 33.2647C96.0671 33.2647 93.4795 34.8392 91.1035 37.8443V59.9583H78.5957C79.1562 58.7471 79.6575 57.5066 80.0977 56.2415C82.9706 47.823 82.5831 38.5523 79.019 30.4321C79.019 30.3746 91.1035 26.2983 91.1035 26.2983V26.3271Z" fill="#00512F" />
<path d="M165.961 28.7564C162.833 27.0649 159.352 26.2293 155.836 26.3264C148.087 26.3264 142.864 30.4027 142.864 36.5567C142.864 47.3406 158.424 46.4635 158.424 51.2371C158.424 52.7325 156.594 53.6599 153.645 53.6599C149.903 53.6599 146.708 52.3083 143.513 50.8848V58.2322C144.878 59.023 149.699 60.6694 154.73 60.6694C162.882 60.6694 167.504 56.8016 167.504 49.9502C167.504 38.9723 151.945 38.8285 151.945 35.1692C151.945 32.8327 154.184 32.5451 155.475 32.5451C157.448 32.5451 161.66 33.4222 165.941 36.262V28.7564H165.961Z" fill="#00512F" />
<path d="M182.865 13.0132L173.006 16.3849V59.9876H182.865V38.9519C185.172 35.4436 187.145 33.9194 189.453 33.9194C192.512 33.9194 194.553 36.2056 194.553 41.1446V59.966H204.405V38.9519C204.405 30.0013 198.629 26.3564 192.921 26.3564C189.05 26.3564 185.855 28.0746 183.001 31.8633H182.865V13.0132Z" fill="#00512F" />
<path d="M81.9753 65.8252H81.0467L78.7186 68.8375L76.4041 65.8252H75.4619V73.1726H76.4655V67.45H76.486L78.6367 70.2969H78.8005L80.9512 67.45H80.9716V73.1726H81.9753V65.8252Z" fill="#00512F" />
<path fill-rule="evenodd" clip-rule="evenodd" d="M86.8194 72.3161C86.6804 72.4429 86.514 72.5318 86.3346 72.5749C86.2254 72.5749 86.164 72.5102 86.164 72.3233V69.8358C86.1719 69.6095 86.1327 69.3841 86.0492 69.1754C85.9657 68.9667 85.8398 68.7798 85.6805 68.6277C85.5211 68.4757 85.3321 68.3621 85.1266 68.2951C84.9212 68.2281 84.7043 68.2092 84.4912 68.2398C84.207 68.2206 83.9223 68.2695 83.6586 68.3828C83.3949 68.4961 83.159 68.6709 82.9687 68.894V69.9436C83.1383 69.7038 83.3572 69.5075 83.6091 69.3693C83.8609 69.2311 84.1391 69.1547 84.4229 69.1456C84.976 69.1456 85.2491 69.39 85.2491 69.9939V70.2528L84.4434 70.5547C83.7061 70.8351 82.8731 71.1298 82.8731 72.086C82.8713 72.2423 82.8992 72.3974 82.9551 72.5422C83.0111 72.687 83.094 72.8186 83.199 72.9291C83.304 73.0396 83.4289 73.1269 83.5664 73.1859C83.7039 73.2448 83.8512 73.2742 83.9997 73.2722C84.456 73.2637 84.8953 73.0884 85.2422 72.7762C85.3242 73.1213 85.5358 73.2722 85.925 73.2722C86.2496 73.2528 86.5591 73.1214 86.8057 72.8984V72.3161H86.8194ZM85.2491 72.1939C85.0438 72.434 84.7566 72.5787 84.4503 72.5965C84.3585 72.6053 84.266 72.5927 84.1794 72.5597C84.0927 72.5267 84.014 72.4741 83.9489 72.4055C83.8837 72.3369 83.8337 72.254 83.8024 72.1628C83.771 72.0715 83.7591 71.9742 83.7675 71.8775C83.7675 71.3096 84.4503 71.0292 85.2218 70.7488V72.1867L85.2491 72.1939Z" fill="#00512F" />
<path d="M88.409 68.3335H87.501V73.179H88.409V69.7354C88.535 69.5309 88.704 69.3597 88.9029 69.2351C89.1018 69.1104 89.3253 69.0356 89.556 69.0164C90.1091 69.0164 90.4572 69.4838 90.4572 70.1955V73.1934H91.3721V70.2027C91.3721 68.8798 90.6894 68.2544 89.8018 68.2544C89.5377 68.2592 89.2779 68.3263 89.0416 68.4507C88.8053 68.5751 88.5985 68.7537 88.4363 68.9733V68.3335H88.409Z" fill="#00512F" />
<path fill-rule="evenodd" clip-rule="evenodd" d="M96.0977 72.3161C95.9601 72.441 95.7963 72.5297 95.6198 72.5749C95.5037 72.5749 95.4423 72.5102 95.4423 72.3233V69.8358C95.4501 69.6102 95.411 69.3855 95.3279 69.1774C95.2448 68.9693 95.1196 68.7827 94.961 68.6308C94.8024 68.4789 94.6142 68.3652 94.4097 68.2977C94.2051 68.2301 93.989 68.2104 93.7764 68.2398C93.4911 68.2206 93.2054 68.2694 92.9406 68.3827C92.6758 68.496 92.4387 68.6707 92.247 68.894V69.9436C92.4177 69.705 92.6368 69.5095 92.8884 69.3714C93.14 69.2333 93.4177 69.1562 93.7013 69.1456C94.2543 69.1456 94.5342 69.3901 94.5342 69.9939V70.2528L93.7218 70.5547C92.9844 70.8351 92.1583 71.1298 92.1583 72.086C92.1565 72.2423 92.1843 72.3975 92.2403 72.5422C92.2963 72.687 92.3792 72.8186 92.4842 72.9291C92.5891 73.0396 92.714 73.1269 92.8516 73.1859C92.9891 73.2448 93.1364 73.2742 93.2848 73.2722C93.739 73.2633 94.176 73.0879 94.5206 72.7762C94.6025 73.1213 94.821 73.2722 95.2033 73.2722C95.5282 73.2544 95.8382 73.1228 96.0841 72.8984V72.3161H96.0977ZM94.5342 72.1939C94.3289 72.434 94.0418 72.5787 93.7354 72.5965C93.6437 72.6053 93.5512 72.5928 93.4645 72.5598C93.3779 72.5267 93.2992 72.4741 93.234 72.4055C93.1689 72.3369 93.1189 72.254 93.0875 72.1628C93.0562 72.0715 93.0443 71.9742 93.0527 71.8775C93.0527 71.3096 93.7354 71.0292 94.5069 70.7488V72.1867L94.5342 72.1939Z" fill="#00512F" />
<path fill-rule="evenodd" clip-rule="evenodd" d="M100.466 68.3335H98.5683C97.3325 68.3335 96.561 68.9733 96.561 70.0086C96.5523 70.33 96.6382 70.6464 96.8068 70.9144C97.004 71.1925 97.2713 71.4067 97.5783 71.5327C97.1345 71.6405 96.8478 71.9065 96.8478 72.2516C96.8478 72.5967 96.9911 72.6614 97.312 72.8627C96.5132 73.0712 96.1514 73.4882 96.1514 74.1999C96.1514 75.0482 97.0321 75.6378 98.2747 75.6378C99.6402 75.6378 100.446 75.0554 100.446 74.0921C100.446 73.481 100.098 72.9562 99.1145 72.7477C98.1313 72.5392 97.708 72.3954 97.708 72.1222C97.708 71.5543 98.9574 71.8994 99.5719 71.202C99.8331 70.9054 99.9856 70.5206 100.002 70.1164C100.003 69.9138 99.9601 69.7137 99.8774 69.5307C99.7946 69.3478 99.6739 69.1868 99.5241 69.0596H100.466V68.3407V68.3335ZM99.1827 70.0158C99.1827 70.2675 99.0878 70.5089 98.9188 70.6868C98.7498 70.8648 98.5206 70.9648 98.2815 70.9648C98.0425 70.9648 97.8133 70.8648 97.6443 70.6868C97.4753 70.5089 97.3803 70.2675 97.3803 70.0158C97.3944 69.7736 97.4981 69.5468 97.6691 69.3842C97.8402 69.2216 98.0649 69.136 98.2952 69.1459C98.5189 69.1379 98.7367 69.2221 98.9024 69.3805C99.0681 69.5389 99.1687 69.759 99.1827 69.9942V70.0158ZM99.5651 74.1927C99.5651 74.6313 99.094 74.9117 98.2952 74.9117C97.4964 74.9117 97.0116 74.6528 97.0116 74.1927C97.0116 73.7326 97.4418 73.4738 98.0562 73.4738C98.6707 73.4738 99.5651 73.632 99.5651 74.2502V74.1927Z" fill="#00512F" />
<path fill-rule="evenodd" clip-rule="evenodd" d="M104.902 71.7769C104.433 72.1342 103.875 72.3369 103.297 72.3592C103.105 72.3738 102.913 72.3481 102.73 72.2834C102.548 72.2187 102.38 72.1165 102.236 71.9826C102.091 71.8488 101.974 71.686 101.89 71.5038C101.806 71.3216 101.758 71.1236 101.747 70.9214H104.984C104.984 69.1312 104.205 68.2614 102.99 68.2614C102.691 68.258 102.394 68.3208 102.119 68.4458C101.845 68.5708 101.598 68.7552 101.395 68.987C101.192 69.2188 101.038 69.4928 100.942 69.7913C100.847 70.0899 100.812 70.4063 100.839 70.7201C100.815 71.0459 100.854 71.3734 100.955 71.6825C101.056 71.9916 101.216 72.2756 101.425 72.5169C101.635 72.7582 101.889 72.9516 102.172 73.0853C102.455 73.2189 102.762 73.2899 103.072 73.2938C103.724 73.321 104.367 73.1214 104.902 72.7259V71.7984V71.7769ZM101.768 70.2671C101.782 69.9346 101.921 69.6216 102.154 69.3966C102.387 69.1716 102.695 69.0529 103.01 69.0665C103.158 69.0641 103.304 69.094 103.44 69.1544C103.575 69.2149 103.697 69.3045 103.798 69.4175C103.899 69.5305 103.977 69.6644 104.025 69.8107C104.074 69.9571 104.094 70.1125 104.082 70.2671H101.768Z" fill="#00512F" />
<path fill-rule="evenodd" clip-rule="evenodd" d="M105.824 68.3342V73.1798H106.739V69.6642C106.863 69.4664 107.031 69.3039 107.229 69.191C107.426 69.0781 107.648 69.0184 107.872 69.0172C108.323 69.0172 108.699 69.3551 108.699 70.1387V73.151H109.613V69.6642C109.87 69.3313 110.235 69.1109 110.638 69.046C110.773 69.0469 110.907 69.0781 111.031 69.1374C111.154 69.1967 111.264 69.2828 111.354 69.3901C111.443 69.4973 111.51 69.6233 111.55 69.7598C111.591 69.8962 111.603 70.04 111.587 70.1819V73.1798H112.501V70.1387C112.501 68.9956 111.907 68.2408 110.972 68.2408C110.671 68.2578 110.377 68.3445 110.112 68.4949C109.846 68.6453 109.615 68.8555 109.436 69.1107C109.307 68.8468 109.111 68.6258 108.87 68.4722C108.629 68.3186 108.352 68.2385 108.07 68.2408C107.809 68.2575 107.553 68.3298 107.318 68.4533C107.083 68.5769 106.875 68.7491 106.705 68.9597V68.3198L105.824 68.3342Z" fill="#00512F" />
<path fill-rule="evenodd" clip-rule="evenodd" d="M117.491 71.7769C117.021 72.1344 116.46 72.337 115.88 72.3592C115.689 72.3738 115.496 72.348 115.315 72.2833C115.133 72.2185 114.965 72.1162 114.821 71.9822C114.678 71.8483 114.561 71.6854 114.478 71.5032C114.394 71.3211 114.347 71.1232 114.337 70.9213H117.573C117.573 69.1312 116.795 68.2614 115.573 68.2614C115.274 68.258 114.977 68.3208 114.702 68.4458C114.428 68.5708 114.181 68.7552 113.978 68.987C113.775 69.2188 113.621 69.4928 113.525 69.7913C113.43 70.0899 113.395 70.4063 113.422 70.7201C113.398 71.0458 113.437 71.3734 113.538 71.6825C113.639 71.9916 113.799 72.2756 114.008 72.5168C114.218 72.7581 114.472 72.9516 114.755 73.0852C115.038 73.2189 115.345 73.2899 115.655 73.2938C116.31 73.3209 116.955 73.1214 117.491 72.7258V71.7984V71.7769ZM114.358 70.2671C114.364 70.1028 114.401 69.9414 114.466 69.7921C114.532 69.6428 114.624 69.5085 114.739 69.397C114.854 69.2855 114.988 69.1989 115.135 69.1422C115.282 69.0855 115.437 69.0598 115.593 69.0665C115.741 69.0631 115.888 69.0922 116.025 69.1522C116.161 69.2122 116.284 69.3016 116.386 69.4147C116.487 69.5279 116.565 69.6622 116.615 69.809C116.664 69.9558 116.684 70.1119 116.672 70.2671H114.358Z" fill="#00512F" />
<path d="M119.336 68.3335H118.428V73.179H119.336V69.7354C119.462 69.5309 119.631 69.3597 119.83 69.2351C120.029 69.1104 120.252 69.0356 120.483 69.0164C121.036 69.0164 121.384 69.4838 121.384 70.1955V73.1934H122.299V70.2027C122.299 68.8798 121.616 68.2544 120.729 68.2544C120.464 68.2592 120.205 68.3263 119.968 68.4507C119.732 68.5751 119.525 68.7537 119.363 68.9733V68.3335H119.336Z" fill="#00512F" />
<path d="M124.526 67.335L122.819 69.0891V69.197H123.618V71.7563C123.606 71.9637 123.637 72.1714 123.709 72.365C123.781 72.5585 123.892 72.7334 124.034 72.8776C124.176 73.0218 124.346 73.1318 124.532 73.2001C124.719 73.2684 124.917 73.2934 125.113 73.2733C125.5 73.2492 125.877 73.1389 126.219 72.9497V72.0583C125.911 72.275 125.552 72.3969 125.182 72.4105C125.09 72.4181 124.998 72.4047 124.912 72.3713C124.826 72.3378 124.748 72.2851 124.683 72.2168C124.618 72.1484 124.568 72.0661 124.536 71.9755C124.504 71.8848 124.492 71.788 124.499 71.6916V69.2113H125.953V68.3486H124.499V67.3493L124.526 67.335Z" fill="#00512F" />
<path fill-rule="evenodd" clip-rule="evenodd" d="M132.842 66.2408C132.384 65.9088 131.842 65.7286 131.285 65.7231C130.002 65.7231 129.162 66.4924 129.162 67.6858C129.162 69.706 132.187 69.8785 132.187 71.3954C132.187 71.8052 131.825 72.3228 131.046 72.3228C130.682 72.3074 130.326 72.2032 130.006 72.0186C129.686 71.834 129.411 71.574 129.203 71.2588V72.6104C129.764 73.0635 130.455 73.3018 131.163 73.2862C131.417 73.299 131.671 73.2567 131.91 73.162C132.148 73.0673 132.365 72.9222 132.548 72.7356C132.731 72.549 132.876 72.3248 132.973 72.077C133.071 71.8292 133.119 71.563 133.115 71.2948C133.115 68.9511 130.097 68.9727 130.097 67.5636C130.097 67.046 130.555 66.6865 131.204 66.6865C131.511 66.695 131.814 66.7673 132.096 66.8993C132.377 67.0313 132.63 67.2204 132.842 67.4557V66.2551V66.2408Z" fill="#00512F" />
<path d="M137.36 68.5714C136.946 68.3568 136.491 68.2437 136.029 68.2407C134.664 68.2407 133.756 69.2544 133.756 70.8504C133.744 71.175 133.796 71.4986 133.91 71.8006C134.024 72.1025 134.196 72.3763 134.415 72.6042C134.635 72.8322 134.898 73.0095 135.186 73.1246C135.474 73.2398 135.782 73.2904 136.09 73.2732C136.558 73.2698 137.021 73.1747 137.456 72.9928V72.0438C137.075 72.2429 136.659 72.3532 136.234 72.3673C136.028 72.3865 135.82 72.3584 135.625 72.2852C135.431 72.2119 135.253 72.0951 135.105 71.9428C134.957 71.7905 134.843 71.6062 134.769 71.4028C134.695 71.1994 134.664 70.9815 134.677 70.7641C134.657 70.557 134.679 70.3477 134.74 70.1499C134.802 69.952 134.902 69.77 135.035 69.6155C135.167 69.461 135.329 69.3375 135.51 69.253C135.69 69.1685 135.886 69.1249 136.084 69.125C136.544 69.1353 136.99 69.3017 137.354 69.5995V68.5714H137.36Z" fill="#00512F" />
<path fill-rule="evenodd" clip-rule="evenodd" d="M139.281 68.3332H138.366V73.1788H139.281V68.3332ZM139.37 66.8954C139.37 66.7813 139.338 66.6699 139.277 66.5751C139.217 66.4804 139.131 66.4067 139.031 66.3634C138.931 66.3201 138.821 66.3091 138.714 66.3319C138.608 66.3547 138.511 66.4102 138.435 66.4913C138.359 66.5725 138.307 66.6756 138.287 66.7877C138.267 66.8997 138.279 67.0156 138.321 67.1205C138.363 67.2255 138.434 67.3148 138.525 67.3771C138.616 67.4395 138.722 67.472 138.83 67.4706C138.974 67.4687 139.111 67.4072 139.212 67.2996C139.313 67.1919 139.37 67.0467 139.37 66.8954Z" fill="#00512F" />
<path fill-rule="evenodd" clip-rule="evenodd" d="M144.333 71.7769C143.865 72.1342 143.307 72.3369 142.729 72.3592C142.537 72.3738 142.344 72.348 142.162 72.2834C141.98 72.2187 141.812 72.1165 141.667 71.9826C141.523 71.8488 141.406 71.686 141.322 71.5038C141.238 71.3215 141.189 71.1235 141.179 70.9214H144.415C144.415 69.1312 143.637 68.2614 142.422 68.2614C142.122 68.258 141.826 68.3208 141.551 68.4458C141.276 68.5708 141.03 68.7552 140.827 68.987C140.624 69.2188 140.47 69.4928 140.374 69.7913C140.278 70.0899 140.243 70.4063 140.271 70.7201C140.247 71.0458 140.286 71.3734 140.387 71.6825C140.488 71.9916 140.648 72.2756 140.857 72.5169C141.066 72.7581 141.32 72.9516 141.604 73.0852C141.887 73.2189 142.193 73.2899 142.503 73.2938C143.156 73.322 143.799 73.1224 144.333 72.7259V71.7984V71.7769ZM141.199 70.2671C141.214 69.9346 141.352 69.6216 141.585 69.3966C141.818 69.1716 142.126 69.0529 142.442 69.0665C142.589 69.0641 142.735 69.094 142.871 69.1544C143.007 69.2149 143.129 69.3045 143.23 69.4175C143.331 69.5305 143.408 69.6644 143.457 69.8107C143.506 69.9571 143.525 70.1125 143.514 70.2671H141.199Z" fill="#00512F" />
<path d="M146.182 68.3335H145.274V73.179H146.182V69.7354C146.308 69.5309 146.477 69.3597 146.676 69.2351C146.875 69.1104 147.099 69.0356 147.329 69.0164C147.882 69.0164 148.231 69.4838 148.231 70.1955V73.1934H149.146V70.2027C149.146 68.8798 148.463 68.2544 147.575 68.2544C147.311 68.2592 147.051 68.3263 146.815 68.4507C146.579 68.5751 146.372 68.7537 146.21 68.9733V68.3335H146.182Z" fill="#00512F" />
<path d="M153.686 68.5715C153.261 68.3507 152.794 68.2375 152.32 68.2408C150.955 68.2408 150.047 69.2545 150.047 70.8505C150.035 71.175 150.087 71.4987 150.201 71.8006C150.315 72.1026 150.487 72.3763 150.706 72.6043C150.926 72.8323 151.189 73.0095 151.477 73.1247C151.765 73.2399 152.074 73.2905 152.382 73.2733C152.849 73.2705 153.313 73.1754 153.747 72.9929V72.0439C153.369 72.2437 152.954 72.3541 152.532 72.3674C152.326 72.3865 152.118 72.3585 151.923 72.2852C151.729 72.2119 151.551 72.0951 151.403 71.9428C151.255 71.7905 151.141 71.6063 151.067 71.4029C150.993 71.1994 150.961 70.9815 150.975 70.7642C150.954 70.5575 150.974 70.3484 151.035 70.1505C151.096 69.9526 151.196 69.7705 151.328 69.6158C151.46 69.4612 151.621 69.3376 151.802 69.2531C151.982 69.1685 152.177 69.1249 152.375 69.1251C152.836 69.1333 153.282 69.2999 153.645 69.5995V68.5715H153.686Z" fill="#00512F" />
<path fill-rule="evenodd" clip-rule="evenodd" d="M158.526 71.7769C158.057 72.1342 157.499 72.3369 156.921 72.3592C156.729 72.3738 156.537 72.3481 156.355 72.2834C156.172 72.2187 156.004 72.1165 155.86 71.9826C155.716 71.8488 155.598 71.686 155.514 71.5038C155.43 71.3216 155.382 71.1236 155.371 70.9214H158.608C158.608 69.1312 157.829 68.2614 156.614 68.2614C156.315 68.258 156.018 68.3208 155.743 68.4458C155.469 68.5708 155.222 68.7552 155.019 68.987C154.816 69.2188 154.662 69.4928 154.566 69.7913C154.471 70.0899 154.436 70.4063 154.463 70.7201C154.439 71.0459 154.478 71.3734 154.579 71.6825C154.68 71.9916 154.84 72.2756 155.049 72.5169C155.259 72.7582 155.513 72.9516 155.796 73.0853C156.079 73.2189 156.386 73.2899 156.696 73.2938C157.348 73.321 157.991 73.1214 158.526 72.7259V71.7984V71.7769ZM155.392 70.2671C155.406 69.9346 155.545 69.6216 155.778 69.3966C156.011 69.1716 156.319 69.0529 156.634 69.0665C156.782 69.0641 156.928 69.094 157.064 69.1544C157.199 69.2149 157.321 69.3045 157.422 69.4175C157.523 69.5305 157.601 69.6644 157.649 69.8107C157.698 69.9571 157.718 70.1125 157.706 70.2671H155.392Z" fill="#00512F" />
<path d="M162.161 68.6361C161.744 68.3876 161.275 68.2517 160.796 68.2407C159.874 68.2407 159.28 68.7368 159.28 69.5635C159.28 70.8648 161.431 71.2171 161.431 71.8857C161.431 72.2307 161.124 72.4105 160.748 72.432C160.199 72.3748 159.676 72.1555 159.239 71.7994V72.8346C159.726 73.1257 160.277 73.2769 160.837 73.2732C161.028 73.2955 161.222 73.2749 161.406 73.2127C161.589 73.1505 161.758 73.0481 161.901 72.9123C162.044 72.7765 162.158 72.6103 162.236 72.4247C162.314 72.2391 162.354 72.0382 162.353 71.8354C162.353 71.3465 162.079 71.0086 161.322 70.4838C160.564 69.959 160.202 69.7289 160.202 69.5132C160.202 69.2975 160.441 69.0675 160.81 69.0675C161.291 69.1025 161.753 69.2821 162.141 69.5851V68.6218L162.161 68.6361Z" fill="#00512F" />
<path d="M168.25 68.3328H167.314C167.41 67.2041 167.908 66.5858 168.762 66.5858C169.078 66.6004 169.387 66.6941 169.663 66.859L169.786 65.9532C169.428 65.8071 169.049 65.7293 168.666 65.7231C167.226 65.7231 166.55 66.8662 166.454 68.3328H165.73L165.614 69.1452H166.352L165.614 75.2129H166.468L167.205 69.1452H168.134L168.25 68.3328Z" fill="#00512F" />
<path fill-rule="evenodd" clip-rule="evenodd" d="M172.104 70.2953C172.104 69.0228 171.421 68.1816 170.39 68.1816C169.14 68.1816 168.191 69.4685 168.191 71.158C168.191 72.5168 168.833 73.3148 169.919 73.3148C171.127 73.3148 172.104 72.0926 172.104 70.2809V70.2953ZM169.079 71.2586C169.079 70.0293 169.646 68.9078 170.39 68.9078C170.895 68.9078 171.209 69.4326 171.209 70.2449C171.209 71.5821 170.615 72.5383 169.891 72.5383C169.441 72.5383 169.079 72.0351 169.079 71.2586Z" fill="#00512F" />
<path d="M174.196 68.3332H173.329L172.681 73.1787H173.555L173.91 70.4468C174.394 69.4978 174.702 69.2102 175.152 69.2102C175.34 69.2112 175.524 69.2659 175.685 69.3684V68.3332C175.564 68.2793 175.433 68.2547 175.302 68.2613C174.865 68.2613 174.62 68.4554 174.087 69.2749L174.217 68.3547L174.196 68.3332Z" fill="#00512F" />
<path d="M184.726 65.8252H183.722V69.0244H179.81V65.8252H178.807V73.1726H179.81V69.9734H183.722V73.1726H184.726V65.8252Z" fill="#00512F" />
<path fill-rule="evenodd" clip-rule="evenodd" d="M189.878 71.7769C189.41 72.1342 188.852 72.3369 188.274 72.3592C188.082 72.3738 187.889 72.3481 187.707 72.2834C187.525 72.2187 187.357 72.1165 187.212 71.9826C187.068 71.8488 186.951 71.686 186.867 71.5038C186.783 71.3216 186.734 71.1236 186.724 70.9214H189.96C189.96 69.1312 189.182 68.2614 187.966 68.2614C187.667 68.258 187.371 68.3208 187.096 68.4458C186.821 68.5708 186.575 68.7552 186.372 68.987C186.169 69.2188 186.015 69.4928 185.919 69.7913C185.823 70.0899 185.788 70.4063 185.816 70.7201C185.792 71.0459 185.831 71.3734 185.932 71.6825C186.033 71.9916 186.193 72.2756 186.402 72.5169C186.611 72.7582 186.865 72.9516 187.149 73.0853C187.432 73.2189 187.738 73.2899 188.048 73.2938C188.701 73.321 189.344 73.1214 189.878 72.7259V71.7984V71.7769ZM186.744 70.2671C186.759 69.9346 186.897 69.6216 187.13 69.3966C187.363 69.1716 187.671 69.0529 187.987 69.0665C188.134 69.0641 188.28 69.094 188.416 69.1544C188.552 69.2149 188.674 69.3045 188.775 69.4175C188.876 69.5305 188.953 69.6644 189.002 69.8107C189.051 69.9571 189.07 70.1125 189.059 70.2671H186.744Z" fill="#00512F" />
<path fill-rule="evenodd" clip-rule="evenodd" d="M194.399 72.3161C194.262 72.441 194.098 72.5297 193.922 72.5749C193.805 72.5749 193.744 72.5102 193.744 72.3233V69.8358C193.752 69.6102 193.713 69.3855 193.63 69.1774C193.547 68.9693 193.421 68.7827 193.263 68.6308C193.104 68.4789 192.916 68.3652 192.711 68.2977C192.507 68.2301 192.291 68.2104 192.078 68.2398C191.793 68.2206 191.507 68.2694 191.242 68.3827C190.978 68.496 190.74 68.6707 190.549 68.894V69.9436C190.719 69.705 190.939 69.5095 191.19 69.3714C191.442 69.2333 191.72 69.1562 192.003 69.1456C192.556 69.1456 192.836 69.3901 192.836 69.9939V70.2528L192.024 70.5547C191.286 70.8351 190.46 71.1298 190.46 72.086C190.458 72.2423 190.486 72.3975 190.542 72.5422C190.598 72.687 190.681 72.8186 190.786 72.9291C190.891 73.0396 191.016 73.1269 191.153 73.1859C191.291 73.2448 191.438 73.2742 191.587 73.2722C192.041 73.2633 192.478 73.0879 192.822 72.7762C192.904 73.1213 193.123 73.2722 193.505 73.2722C193.83 73.2544 194.14 73.1228 194.386 72.8984V72.3161H194.399ZM192.836 72.1939C192.631 72.434 192.344 72.5787 192.037 72.5965C191.945 72.6053 191.853 72.5928 191.766 72.5598C191.68 72.5267 191.601 72.4741 191.536 72.4055C191.471 72.3369 191.421 72.254 191.389 72.1628C191.358 72.0715 191.346 71.9742 191.354 71.8775C191.354 71.3096 192.037 71.0292 192.809 70.7488V72.1867L192.836 72.1939Z" fill="#00512F" />
<path d="M196.038 65.8252H195.123V73.1726H196.038V65.8252Z" fill="#00512F" />
<path d="M198.304 67.335L196.59 69.0891V69.197H197.389V71.7563C197.377 71.9637 197.408 72.1714 197.48 72.365C197.551 72.5585 197.662 72.7334 197.804 72.8776C197.946 73.0218 198.116 73.1318 198.303 73.2001C198.489 73.2684 198.687 73.2934 198.884 73.2733C199.271 73.2518 199.648 73.1414 199.99 72.9497V72.0583C199.684 72.2751 199.327 72.3971 198.959 72.4105C198.867 72.4181 198.776 72.4047 198.689 72.3713C198.603 72.3378 198.525 72.2851 198.46 72.2168C198.395 72.1484 198.345 72.0661 198.314 71.9755C198.282 71.8848 198.269 71.788 198.276 71.6916V69.2113H199.73V68.3486H198.276V67.3493L198.304 67.335Z" fill="#00512F" />
<path d="M201.409 65.8252H200.494V73.1798H201.409V69.7361C201.534 69.5309 201.703 69.3592 201.902 69.2344C202.101 69.1097 202.325 69.0353 202.556 69.0172C203.109 69.0172 203.457 69.4845 203.457 70.1963V73.1942H204.365V70.225C204.365 68.9022 203.683 68.2552 202.802 68.2552C202.538 68.26 202.278 68.327 202.042 68.4515C201.805 68.5759 201.598 68.7545 201.436 68.9741V65.8252H201.409Z" fill="#00512F" />
</svg>
