<?xml version="1.0" encoding="UTF-8"?>
<svg width="200px" height="60px" viewBox="0 0 200 60" version="1.1" xmlns="http://www.w3.org/2000/svg" xmlns:xlink="http://www.w3.org/1999/xlink">
    <title>logo</title>
    <g id="Symbols" stroke="none" stroke-width="1" fill="none" fill-rule="evenodd">
        <g id="Header/Desktop/Expertise" transform="translate(-120.000000, -50.000000)" fill-rule="nonzero">
            <g id="logo" transform="translate(120.000000, 50.000000)">
                <rect id="Rectangle-path" fill="#002D62" x="70.4760583" y="18.6807825" width="4.57460097" height="20.6913694"></rect>
                <path d="M77.7598893,24.3921749 L81.6904924,24.3921749 L81.6904924,26.5132336 L81.7793198,26.5132336 C82.7727672,24.9442245 84.5123817,23.9993878 86.3761275,24.0165708 C90.8174878,24.0165708 91.9278282,26.480092 91.9278282,30.1919448 L91.9278282,39.4052935 L87.7529496,39.4052935 L87.7529496,30.9321058 C87.7529496,28.4685846 87.0201252,27.2533947 85.0992366,27.2533947 C82.8785565,27.2533947 81.9014573,28.5017261 81.9014573,31.550748 L81.9014573,39.3942463 L77.7598893,39.3942463 L77.7598893,24.3921749 Z" id="Shape" fill="#002D62"></path>
                <path d="M99.5225534,24.3921749 L102.553782,24.3921749 L102.553782,27.1097814 L99.5225534,27.1097814 L99.5225534,34.5224396 C99.5225534,35.9143843 99.8667595,36.2568469 101.265788,36.2568469 C101.694046,36.2622139 102.121779,36.2252079 102.542679,36.1463752 L102.542679,39.3611047 C101.744405,39.4702044 100.938896,39.5182164 100.13324,39.5047181 C97.6016656,39.5047181 95.3809855,38.9302647 95.3809855,35.9475259 L95.3809855,27.1097814 L92.8827206,27.1097814 L92.8827206,24.3921749 L95.3920885,24.3921749 L95.3920885,19.8849252 L99.5336573,19.8849252 L99.5225534,24.3921749 Z" id="Shape" fill="#002D62"></path>
                <path d="M107.616933,32.8874569 C107.73907,35.4945915 109.015961,36.687687 111.314365,36.687687 C112.698621,36.7602501 113.989189,35.9915775 114.578765,34.7433832 L118.22068,34.7433832 C117.398412,37.8927605 114.431731,40.0077307 111.170021,39.7698504 C106.428869,39.7698504 103.475364,36.5219793 103.475364,31.8821634 C103.366385,29.8927596 104.056189,27.9417656 105.393024,26.4583889 C106.72986,24.9750122 108.604217,24.0807671 110.603747,23.9723821 L111.170021,23.9723821 C116.299792,23.9723821 118.77585,28.2586881 118.476058,32.8764096 L107.616933,32.8874569 Z M114.345593,30.2803222 C113.968078,28.1924051 113.068702,27.087687 111.014573,27.087687 C110.148478,27.0395112 109.298724,27.3362882 108.652921,27.912496 C108.007118,28.4887038 107.618375,29.2969543 107.572519,30.1588032 L107.572519,30.2803222 L114.345593,30.2803222 Z" id="Shape" fill="#002D62"></path>
                <path d="M120.319223,24.4474108 L124.249827,24.4474108 L124.249827,27.2313004 L124.305344,27.2313004 C125.14904,25.2886494 127.074928,24.0329496 129.201943,24.0386457 C129.507309,24.0410218 129.810548,24.0894435 130.101318,24.1822785 L130.101318,28.004603 C129.611482,27.9070775 129.113007,27.8589628 128.613463,27.8609897 C125.582234,27.8609897 124.538515,30.0704258 124.538515,32.6665132 L124.538515,39.4163406 L120.319223,39.4163406 L120.319223,24.4474108 Z" id="Shape" fill="#002D62"></path>
                <path d="M131.600278,24.4695052 L135.530882,24.4695052 L135.530882,26.5132336 L135.619708,26.5132336 C136.630061,24.9509695 138.383036,24.0224563 140.249827,24.0607595 C144.691187,24.0607595 145.801527,26.5242808 145.801527,30.2361335 L145.801527,39.4494822 L141.671062,39.4494822 L141.671062,30.9321058 C141.671062,28.4685846 140.938237,27.2533947 139.017349,27.2533947 C136.796669,27.2533947 135.819569,28.5017261 135.819569,31.5397008 L135.819569,39.3942463 L131.678002,39.3942463 L131.600278,24.4695052 Z" id="Shape" fill="#002D62"></path>
                <path d="M151.408744,32.8874569 C151.519778,35.4945915 152.807773,36.687687 155.106176,36.687687 C156.4912,36.7633299 157.783366,35.9937048 158.370576,34.7433832 L162.012492,34.7433832 C161.190224,37.8927605 158.223541,40.0077307 154.961832,39.7698504 C150.22068,39.7698504 147.278279,36.5219793 147.278279,31.8821634 C147.169299,29.8927596 147.859103,27.9417656 149.19594,26.4583889 C150.532775,24.9750122 152.407132,24.0807671 154.406662,23.9723821 L154.961832,23.9723821 C160.091603,23.9723821 162.567661,28.2586881 162.278973,32.8764096 L151.408744,32.8874569 Z M158.137405,30.2803222 C157.759889,28.1924051 156.84941,27.087687 154.806385,27.087687 C153.940421,27.0518016 153.09566,27.3600207 152.458316,27.9444031 C151.820972,28.5287854 151.443369,29.3413538 151.408744,30.2029919 L151.408744,30.2692751 L158.137405,30.2803222 Z" id="Shape" fill="#002D62"></path>
                <polygon id="Shape" fill="#002D62" points="180.977099 39.3721519 176.724497 39.3721519 174.048577 29.3192175 173.99306 29.3192175 171.428175 39.3721519 167.142263 39.3721519 162.3678 24.3921749 166.74254 24.3921749 169.507286 34.5666283 169.562804 34.5666283 172.061069 24.3921749 176.0805 24.3921749 178.645385 34.5334868 178.712005 34.5334868 181.476752 24.3921749 185.729355 24.3921749"></polygon>
                <path d="M189.804302,34.5003452 C189.804302,36.3010356 191.347676,37.0191024 192.979875,37.0191024 C194.179042,37.0191024 195.689105,36.5551208 195.689105,35.1079401 C195.689105,33.8596088 193.968078,33.4287687 191.003469,32.7880322 C188.616239,32.2688147 186.229008,31.429229 186.229008,28.7889528 C186.229008,24.9666283 189.560027,23.9723821 192.780014,23.9723821 C196,23.9723821 199.097849,25.0771001 199.442054,28.7558113 L195.51145,28.7558113 C195.400416,27.1650172 194.167939,26.72313 192.691187,26.72313 C191.758501,26.72313 190.392782,26.8998849 190.392782,28.1150748 C190.392782,29.595397 192.724497,29.7942463 195.089521,30.3245109 C197.454546,30.8547756 199.863983,31.7495973 199.863983,34.5334868 C199.863983,38.4773303 196.433033,39.7477561 192.990979,39.7477561 C189.548924,39.7477561 186.084663,38.4441887 185.918112,34.4672037 L189.804302,34.5003452 Z" id="Shape" fill="#002D62"></path>
                <g id="Earth" transform="translate(0.342641, 0.001898)">
                    <path d="M11.9515994,42.7175498 L15.1271719,43.0047765 C15.1271719,40.4749722 15.2048957,38.8620838 15.2048957,38.8620838 C10.4594911,38.7702031 5.72588797,38.3568181 1.03695682,37.6247996 C2.68169801,43.6844477 6.20586188,49.0734334 11.107741,53.0245694 C8.5428555,41.5244543 9.24236969,42.4082288 11.9515994,42.7175498 L11.9515994,42.7175498 Z" id="Shape" fill="#FBB034"></path>
                    <path d="M44.0182198,3.46691693 C35.3481669,-1.10035602 24.98064,-1.1581202 16.2597188,3.31225639 C15.4927247,5.58149731 15.0844398,7.95544749 15.0494482,10.3493105 C20.5644569,9.56913093 26.136694,9.26236164 31.7045488,9.4323945 C35.5685321,9.4323945 35.8239103,9.56496063 36.3346667,10.8906223 L36.3346667,14.7350412 C39.7323073,14.7350412 42.996707,14.7350412 45.8391775,14.9007489 C45.8387954,11.0180298 45.2242931,7.15955671 44.0182198,3.46691693 L44.0182198,3.46691693 Z" id="Shape" fill="#6CB33F"></path>
                    <path d="M19.9904613,50.737803 C17.5921269,50.4174347 17.6920574,49.4342357 17.680954,48.7493105 C17.680954,48.5394141 17.680954,46.2636948 17.5810234,43.2257201 C14.6053121,42.9826821 12.5178728,42.7948801 11.9738063,42.7396442 C9.24236969,42.419276 8.5428555,41.5465487 11.107741,53.0245694 C23.8478079,63.3027849 42.5246314,61.4864 53.0230776,48.9481597 C48.2486154,50.130208 38.3221754,51.5994831 19.9904613,50.737803 L19.9904613,50.737803 Z" id="Shape" fill="#F15D22"></path>
                    <path d="M44.0182198,3.46691693 C46.2388999,9.10097903 45.8613843,18.9329699 45.9169013,19.5184705 C45.9724183,20.103971 45.5060755,21.7279066 49.0813704,21.6505763 C52.4297724,21.6378836 55.7730821,21.9113861 59.0744308,22.4680676 C56.9701227,14.3069061 51.5032061,7.4075802 44.0182198,3.46691693 L44.0182198,3.46691693 Z" id="Shape" fill="#626264"></path>
                    <path d="M19.1688097,23.7937294 C20.3679769,23.7937294 27.6740144,23.6611632 36.4568041,23.7163991 L36.3124599,10.9569054 C35.7906002,9.63124377 35.5463253,9.53181913 31.682342,9.49867756 C23.0574101,9.27188615 14.436842,10.0917388 6.0112802,11.9401045 C0.859537297,18.774547 -1.10839733,27.4748508 0.603924198,35.8462035 C4.71218235,36.1665717 11.2409818,36.3875153 17.4366792,36.5090343 L17.2479214,25.4618536 C17.2479214,25.4618536 16.9259228,23.7937294 19.1688097,23.7937294 L19.1688097,23.7937294 Z" id="Shape" fill="#002D62"></path>
                    <path d="M59.4852566,24.3018997 C52.6677688,23.8379181 44.0182198,23.6722104 36.4457008,23.6169745 L36.5678382,34.3106453 C36.5678382,34.3106453 36.8676299,36.5200815 33.5366098,36.5200815 C31.8155827,36.5200815 24.8648541,36.5200815 17.4366792,36.3875153 C17.5366098,42.2314739 17.6476438,48.2742817 17.6476438,48.6277915 C17.6476438,49.3127167 17.5588166,50.2848686 19.9571511,50.616284 C38.3221754,51.4890113 48.2597188,50.0086891 53.0230776,48.8487351 C57.5220513,43.5184168 59.9976789,36.7859633 60.0182198,29.82549 C60.0118653,27.9718945 59.8334531,26.1228445 59.4852566,24.3018997 L59.4852566,24.3018997 Z" id="Shape" fill="#005CAB"></path>
                    <path d="M36.5678382,34.3658813 L36.4457008,23.6722104 C27.662911,23.6722104 20.3568735,23.6722104 19.1577063,23.7495407 C16.9370262,23.7495407 17.236818,25.4176649 17.236818,25.4176649 L17.4255758,36.4648456 C24.8537507,36.6195061 31.793376,36.6416005 33.5255064,36.5974117 C36.8787334,36.5421758 36.5678382,34.3658813 36.5678382,34.3658813 L36.5678382,34.3658813 Z" id="Shape" fill="#B1BCE0"></path>
                </g>
            </g>
        </g>
    </g>
</svg>