<svg id="Layer_1" data-name="Layer 1" xmlns="http://www.w3.org/2000/svg" xmlns:xlink="http://www.w3.org/1999/xlink" viewBox="0 0 229.04 45.66"><defs><style>.cls-1,.cls-2{fill:none;}.cls-2{clip-rule:evenodd;}.cls-3{clip-path:url(#clip-path);}.cls-4{clip-path:url(#clip-path-2);}.cls-5{fill:#272e67;}.cls-6{clip-path:url(#clip-path-3);}.cls-7{clip-path:url(#clip-path-5);}.cls-8{clip-path:url(#clip-path-7);}.cls-9{clip-path:url(#clip-path-9);}.cls-10{isolation:isolate;}.cls-11{clip-path:url(#clip-path-11);}.cls-12{clip-path:url(#clip-path-12);}.cls-13{clip-path:url(#clip-path-13);}.cls-14{clip-path:url(#clip-path-14);}.cls-15{clip-path:url(#clip-path-16);}.cls-16{clip-path:url(#clip-path-18);}.cls-17{clip-path:url(#clip-path-20);}.cls-18{clip-path:url(#clip-path-22);}.cls-19{clip-path:url(#clip-path-24);}.cls-20{clip-path:url(#clip-path-26);}.cls-21{clip-path:url(#clip-path-28);}.cls-22{clip-path:url(#clip-path-30);}.cls-23{clip-path:url(#clip-path-32);}.cls-24{clip-path:url(#clip-path-34);}.cls-25{clip-path:url(#clip-path-36);}.cls-26{clip-path:url(#clip-path-38);}.cls-27{clip-path:url(#clip-path-40);}.cls-28{clip-path:url(#clip-path-42);}.cls-29{clip-path:url(#clip-path-44);}.cls-30{clip-path:url(#clip-path-46);}.cls-31{clip-path:url(#clip-path-48);}.cls-32{clip-path:url(#clip-path-50);}.cls-33{clip-path:url(#clip-path-52);}.cls-34{clip-path:url(#clip-path-54);}.cls-35{clip-path:url(#clip-path-56);}.cls-36{clip-path:url(#clip-path-58);}.cls-37{clip-path:url(#clip-path-60);}.cls-38{clip-path:url(#clip-path-62);}.cls-39{clip-path:url(#clip-path-64);}.cls-40{clip-path:url(#clip-path-66);}.cls-41{clip-path:url(#clip-path-68);}</style><clipPath id="clip-path"><rect class="cls-1" x="6" y="9.66" width="6" height="28"/></clipPath><clipPath id="clip-path-2"><rect class="cls-1" x="-29" y="-41.34" width="1024" height="2232"/></clipPath><clipPath id="clip-path-3"><path class="cls-2" d="M38.54,31.66H25.29l-2.53,6H16l12.72-28h6.52L48,37.66H41.07Zm-2.08-4.92L31.94,16,27.41,26.74Z"/></clipPath><clipPath id="clip-path-5"><path class="cls-2" d="M48.47,34.85l2.25-4.92a17,17,0,0,0,9.44,2.94c3.92,0,5.52-1.29,5.52-3C65.68,24.56,49,28.19,49,17.69c0-4.8,3.92-8.8,12.06-8.8A19.35,19.35,0,0,1,71,11.4l-2,5a16.37,16.37,0,0,0-7.93-2.22c-3.93,0-5.44,1.46-5.44,3.23,0,5.21,16.64,1.62,16.64,12,0,4.72-4,8.76-12.14,8.76-4.54,0-9.12-1.33-11.65-3.27"/></clipPath><clipPath id="clip-path-7"><path class="cls-2" d="M75,23.51C75,15,81.62,8.89,90.53,8.89c4.94,0,9.07,1.78,11.77,5l-4.25,3.87a9.27,9.27,0,0,0-7.19-3.3c-5.36,0-9.16,3.71-9.16,9s3.8,9,9.16,9a9.16,9.16,0,0,0,7.19-3.35l4.25,3.87c-2.7,3.27-6.83,5-11.81,5C81.62,38.12,75,32,75,23.51"/></clipPath><clipPath id="clip-path-9"><rect class="cls-1" x="6" y="8.89" width="217.87" height="31.73"/></clipPath><clipPath id="clip-path-11"><rect class="cls-1" x="118" y="8.66" width="106" height="32"/></clipPath><clipPath id="clip-path-12"><rect class="cls-1" x="118.82" y="9.37" width="0.82" height="9.74"/></clipPath><clipPath id="clip-path-13"><rect class="cls-1" x="6" y="8.66" width="218" height="32"/></clipPath><clipPath id="clip-path-14"><path class="cls-2" d="M122.51,11.87l.07,1.2a2.45,2.45,0,0,1,.78-1,1.89,1.89,0,0,1,1.13-.34,1.75,1.75,0,0,1,1.51.72,3.8,3.8,0,0,1,.52,2.23v4.42h-.82V14.7a3.13,3.13,0,0,0-.36-1.74,1.25,1.25,0,0,0-1.06-.5,1.45,1.45,0,0,0-1,.4,2.5,2.5,0,0,0-.63,1.08v5.17h-.81V11.87Z"/></clipPath><clipPath id="clip-path-16"><path class="cls-2" d="M129.55,10v1.85h1.28v.68h-1.28v4.69a1.79,1.79,0,0,0,.21,1,.6.6,0,0,0,.53.29,1.72,1.72,0,0,0,.32,0l.35-.06.11.62a1.74,1.74,0,0,1-.42.13,3.17,3.17,0,0,1-.53.05,1.23,1.23,0,0,1-1-.48,2.57,2.57,0,0,1-.37-1.53V12.55h-1v-.68h1V10Z"/></clipPath><clipPath id="clip-path-18"><path class="cls-2" d="M134.73,19.25a2.43,2.43,0,0,1-1.94-.88,3.33,3.33,0,0,1-.75-2.24V14.92a3.48,3.48,0,0,1,.75-2.28,2.31,2.31,0,0,1,1.82-.9,2.14,2.14,0,0,1,1.79.81,3.38,3.38,0,0,1,.64,2.17v.8h-4.2v.6a2.9,2.9,0,0,0,.51,1.75,1.64,1.64,0,0,0,1.38.7,2.38,2.38,0,0,0,1-.21,2.17,2.17,0,0,0,.75-.6l.33.57A2.41,2.41,0,0,1,136,19a2.86,2.86,0,0,1-1.26.25m-.12-6.8a1.47,1.47,0,0,0-1.25.69,3,3,0,0,0-.52,1.69h3.38v-.3A2.5,2.5,0,0,0,135.8,13a1.37,1.37,0,0,0-1.19-.59"/></clipPath><clipPath id="clip-path-20"><path class="cls-2" d="M141.3,12.59l-.54,0a1.27,1.27,0,0,0-.94.38,2.29,2.29,0,0,0-.55,1v5.14h-.81V11.87h.72l.09,1.2a2.42,2.42,0,0,1,.68-1,1.51,1.51,0,0,1,1-.35,1.06,1.06,0,0,1,.25,0l.21.05Z"/></clipPath><clipPath id="clip-path-22"><rect class="cls-1" x="141.92" y="14.61" width="2.7" height="0.68"/></clipPath><clipPath id="clip-path-24"><path class="cls-2" d="M150.49,16.41h-3.6l-.84,2.7h-.84l3.13-9.74h.73l3.09,9.74h-.84Zm-3.37-.74h3.15l-1.55-5h0Z"/></clipPath><clipPath id="clip-path-26"><path class="cls-2" d="M153.06,15.13a4.31,4.31,0,0,1,.63-2.46,2,2,0,0,1,1.74-.93,2,2,0,0,1,1.08.29,2.45,2.45,0,0,1,.77.85l.08-1h.69v7.25a3.2,3.2,0,0,1-.66,2.15,2.32,2.32,0,0,1-1.86.76,3.53,3.53,0,0,1-.93-.13,3.74,3.74,0,0,1-.89-.34l.23-.7a3.31,3.31,0,0,0,.74.32,2.94,2.94,0,0,0,.84.12,1.52,1.52,0,0,0,1.29-.56,2.65,2.65,0,0,0,.42-1.62v-.88a2.3,2.3,0,0,1-.77.75,2.1,2.1,0,0,1-1.05.26,2,2,0,0,1-1.73-.85,3.81,3.81,0,0,1-.62-2.27Zm.82,1a3.21,3.21,0,0,0,.42,1.75,1.46,1.46,0,0,0,1.29.65,1.61,1.61,0,0,0,1-.31,2.26,2.26,0,0,0,.64-.88V13.75a2.4,2.4,0,0,0-.63-.93,1.52,1.52,0,0,0-2.29.38,3.8,3.8,0,0,0-.43,1.93Z"/></clipPath><clipPath id="clip-path-28"><path class="cls-2" d="M162.25,19.25a2.43,2.43,0,0,1-1.94-.88,3.33,3.33,0,0,1-.75-2.24V14.92a3.43,3.43,0,0,1,.76-2.28,2.29,2.29,0,0,1,1.81-.9,2.14,2.14,0,0,1,1.79.81,3.38,3.38,0,0,1,.64,2.17v.8h-4.19v.6a3,3,0,0,0,.5,1.75,1.64,1.64,0,0,0,1.38.7,2.38,2.38,0,0,0,1-.21,2.17,2.17,0,0,0,.75-.6l.33.57a2.41,2.41,0,0,1-.86.67,2.86,2.86,0,0,1-1.26.25m-.12-6.8a1.48,1.48,0,0,0-1.25.69,2.87,2.87,0,0,0-.51,1.69h3.38v-.3a2.5,2.5,0,0,0-.43-1.49,1.37,1.37,0,0,0-1.19-.59"/></clipPath><clipPath id="clip-path-30"><path class="cls-2" d="M166.71,11.87l.06,1.2a2.53,2.53,0,0,1,.78-1,1.89,1.89,0,0,1,1.13-.34,1.75,1.75,0,0,1,1.51.72,3.8,3.8,0,0,1,.53,2.23v4.42h-.82V14.7a3,3,0,0,0-.37-1.74,1.24,1.24,0,0,0-1.06-.5,1.45,1.45,0,0,0-1.05.4,2.5,2.5,0,0,0-.63,1.08v5.17H166V11.87Z"/></clipPath><clipPath id="clip-path-32"><path class="cls-2" d="M174.86,18.57a1.55,1.55,0,0,0,1.12-.46,1.64,1.64,0,0,0,.48-1.26h.72l0,0a2.17,2.17,0,0,1-.68,1.67,2.34,2.34,0,0,1-1.66.68,2.3,2.3,0,0,1-1.94-.89,3.66,3.66,0,0,1-.69-2.3V14.93a3.65,3.65,0,0,1,.69-2.29,2.28,2.28,0,0,1,1.94-.9,2.22,2.22,0,0,1,1.69.7,2.52,2.52,0,0,1,.65,1.86v0h-.73A2,2,0,0,0,176,13a1.45,1.45,0,0,0-1.14-.51,1.5,1.5,0,0,0-1.38.7,3.39,3.39,0,0,0-.43,1.79v1.13a3.37,3.37,0,0,0,.43,1.79,1.51,1.51,0,0,0,1.38.71"/></clipPath><clipPath id="clip-path-34"><path class="cls-2" d="M180.44,17.12l.19.72h0l1.73-6h.91l-2.61,8.4a4.38,4.38,0,0,1-.63,1.24A1.3,1.3,0,0,1,179,22l-.3,0-.27-.06.09-.69.22,0,.23,0a.78.78,0,0,0,.67-.38,3.2,3.2,0,0,0,.41-1l.31-.95L178,11.87h.9Z"/></clipPath><clipPath id="clip-path-36"><path class="cls-2" d="M123.29,35.32a1.81,1.81,0,0,0-.47-1.3,4,4,0,0,0-1.65-.88,5.24,5.24,0,0,1-2-1,2.26,2.26,0,0,1-.69-1.73,2.35,2.35,0,0,1,.78-1.83,2.84,2.84,0,0,1,2-.71,2.71,2.71,0,0,1,2.07.84,2.83,2.83,0,0,1,.76,2l0,0h-.77a2.32,2.32,0,0,0-.54-1.59,1.92,1.92,0,0,0-1.5-.62,2,2,0,0,0-1.45.52,1.75,1.75,0,0,0-.51,1.29,1.65,1.65,0,0,0,.5,1.21,4.05,4.05,0,0,0,1.69.86,4.69,4.69,0,0,1,2,1.09,2.43,2.43,0,0,1,.68,1.8,2.31,2.31,0,0,1-.8,1.86,3,3,0,0,1-2.06.68,3.34,3.34,0,0,1-2.16-.73,2.48,2.48,0,0,1-.88-2.14v0H119a2,2,0,0,0,.67,1.69,2.44,2.44,0,0,0,1.6.54,2.16,2.16,0,0,0,1.48-.5,1.7,1.7,0,0,0,.56-1.34"/></clipPath><clipPath id="clip-path-38"><path class="cls-2" d="M126.78,28.62v1.84h1.28v.69h-1.28v4.69a1.73,1.73,0,0,0,.21,1,.61.61,0,0,0,.53.3l.32,0,.35-.06.11.61a1.39,1.39,0,0,1-.42.13,2.38,2.38,0,0,1-.53.05,1.23,1.23,0,0,1-1-.48,2.55,2.55,0,0,1-.37-1.52V31.15h-1v-.69h1V28.62Z"/></clipPath><clipPath id="clip-path-40"><path class="cls-2" d="M133.4,37.7c0-.25-.07-.45-.09-.61a4,4,0,0,1,0-.49,2.74,2.74,0,0,1-.87.89,2,2,0,0,1-1.18.35,1.78,1.78,0,0,1-1.4-.55,2.21,2.21,0,0,1-.49-1.51,2,2,0,0,1,.71-1.61,3,3,0,0,1,1.95-.6h1.28v-.89a1.73,1.73,0,0,0-.39-1.2,1.42,1.42,0,0,0-1.1-.44,1.49,1.49,0,0,0-1.08.41,1.4,1.4,0,0,0-.43,1h-.75l0,0a1.88,1.88,0,0,1,.63-1.46,2.31,2.31,0,0,1,1.69-.64,2.23,2.23,0,0,1,1.64.61,2.36,2.36,0,0,1,.62,1.75v3.55q0,.39,0,.75a5.55,5.55,0,0,0,.13.71Zm-2.07-.58a2,2,0,0,0,1.21-.38,2.16,2.16,0,0,0,.74-1V34.19H132a1.86,1.86,0,0,0-1.33.47,1.47,1.47,0,0,0-.5,1.14,1.39,1.39,0,0,0,.31,1A1.07,1.07,0,0,0,131.33,37.12Z"/></clipPath><clipPath id="clip-path-42"><path class="cls-2" d="M136.67,30.46l.07,1.2a2.39,2.39,0,0,1,.77-1,2,2,0,0,1,1.14-.35,1.76,1.76,0,0,1,1.51.72,3.84,3.84,0,0,1,.52,2.24V37.7h-.82V33.29a3.07,3.07,0,0,0-.36-1.73,1.24,1.24,0,0,0-1.07-.51,1.45,1.45,0,0,0-1,.41,2.5,2.5,0,0,0-.63,1.08V37.7H136V30.46Z"/></clipPath><clipPath id="clip-path-44"><path class="cls-2" d="M142.25,34.15a5.46,5.46,0,0,1,.61-2.78,2,2,0,0,1,2.78-.76,2.34,2.34,0,0,1,.76.8V27.27h.81V37.7h-.72l-.06-.93a2.37,2.37,0,0,1-.77.8,2.11,2.11,0,0,1-1.08.27,1.93,1.93,0,0,1-1.71-1,4.71,4.71,0,0,1-.62-2.59Zm.82.14a4.32,4.32,0,0,0,.42,2.07,1.36,1.36,0,0,0,1.27.77,1.58,1.58,0,0,0,1-.32,2.26,2.26,0,0,0,.64-.9V32.36a2.53,2.53,0,0,0-.62-.94,1.48,1.48,0,0,0-1-.37,1.37,1.37,0,0,0-1.28.86,5.11,5.11,0,0,0-.42,2.24Z"/></clipPath><clipPath id="clip-path-46"><path class="cls-2" d="M149.16,28.4H150V27.27h-.81Zm0,9.3H150V30.46h-.81Z"/></clipPath><clipPath id="clip-path-48"><path class="cls-2" d="M152.62,30.46l.07,1.2a2.41,2.41,0,0,1,.78-1,1.9,1.9,0,0,1,1.13-.35,1.75,1.75,0,0,1,1.51.72,3.84,3.84,0,0,1,.52,2.24V37.7h-.82V33.29a3.07,3.07,0,0,0-.36-1.73,1.23,1.23,0,0,0-1.06-.51,1.46,1.46,0,0,0-1,.41,2.5,2.5,0,0,0-.63,1.08V37.7h-.81V30.46Z"/></clipPath><clipPath id="clip-path-50"><path class="cls-2" d="M158.2,33.73a4.33,4.33,0,0,1,.63-2.47,2,2,0,0,1,1.74-.93,2,2,0,0,1,1.08.3,2.32,2.32,0,0,1,.77.84l.08-1h.69v7.25a3.16,3.16,0,0,1-.66,2.15,2.3,2.3,0,0,1-1.86.77,4,4,0,0,1-.93-.13,3.94,3.94,0,0,1-.88-.35l.22-.7a2.59,2.59,0,0,0,.74.32,2.94,2.94,0,0,0,.84.12,1.51,1.51,0,0,0,1.29-.55,2.69,2.69,0,0,0,.42-1.63v-.88a2.18,2.18,0,0,1-.76.75,2,2,0,0,1-1.05.26,2,2,0,0,1-1.73-.85,3.75,3.75,0,0,1-.63-2.27Zm.82,1a3.11,3.11,0,0,0,.43,1.75,1.42,1.42,0,0,0,1.28.66,1.6,1.6,0,0,0,1-.32,2.12,2.12,0,0,0,.64-.88V32.34a2.4,2.4,0,0,0-.63-.93,1.52,1.52,0,0,0-2.29.39,3.78,3.78,0,0,0-.43,1.93Z"/></clipPath><clipPath id="clip-path-52"><path class="cls-2" d="M173.54,34.87l0,0a3,3,0,0,1-.76,2.18,2.75,2.75,0,0,1-2.05.75,2.65,2.65,0,0,1-2.16-1,4.09,4.09,0,0,1-.8-2.71V31.49a4.13,4.13,0,0,1,.8-2.71,2.68,2.68,0,0,1,2.16-1,2.79,2.79,0,0,1,2.06.74,3,3,0,0,1,.75,2.19l0,0h-.75a2.56,2.56,0,0,0-.54-1.71,2,2,0,0,0-1.5-.55,1.84,1.84,0,0,0-1.58.76,3.56,3.56,0,0,0-.57,2.18v2.72a3.62,3.62,0,0,0,.57,2.21,1.84,1.84,0,0,0,1.58.76,2,2,0,0,0,1.5-.54,2.59,2.59,0,0,0,.54-1.75Z"/></clipPath><clipPath id="clip-path-54"><path class="cls-2" d="M174.82,33.56a3.64,3.64,0,0,1,.73-2.32,2.4,2.4,0,0,1,2-.91,2.36,2.36,0,0,1,2,.91,3.49,3.49,0,0,1,.74,2.32v1.06a3.54,3.54,0,0,1-.73,2.32,2.61,2.61,0,0,1-3.94,0,3.6,3.6,0,0,1-.73-2.32Zm.82,1.07a3.16,3.16,0,0,0,.49,1.81,1.7,1.7,0,0,0,2.78,0,3.18,3.18,0,0,0,.49-1.8V33.56a3.17,3.17,0,0,0-.49-1.79,1.59,1.59,0,0,0-1.39-.73,1.56,1.56,0,0,0-1.39.73,3.09,3.09,0,0,0-.49,1.79Z"/></clipPath><clipPath id="clip-path-56"><path class="cls-2" d="M182.42,30.46l.07,1.13a2.3,2.3,0,0,1,.77-.93,2,2,0,0,1,1.13-.33,1.64,1.64,0,0,1,1.12.39,2.21,2.21,0,0,1,.66,1.16,2.61,2.61,0,0,1,.77-1.13,1.84,1.84,0,0,1,1.21-.42,1.71,1.71,0,0,1,1.49.77,4.29,4.29,0,0,1,.53,2.37V37.7h-.82V33.46a3.54,3.54,0,0,0-.36-1.87,1.21,1.21,0,0,0-1.05-.54,1.27,1.27,0,0,0-1.11.6,3.21,3.21,0,0,0-.49,1.51V37.7h-.81V33.47a3.46,3.46,0,0,0-.37-1.86,1.21,1.21,0,0,0-1-.56,1.39,1.39,0,0,0-1,.39,2.21,2.21,0,0,0-.56,1.05V37.7h-.82V30.46Z"/></clipPath><clipPath id="clip-path-58"><path class="cls-2" d="M192.68,30.46l.07,1.13a2.38,2.38,0,0,1,.77-.93,2,2,0,0,1,1.13-.33,1.64,1.64,0,0,1,1.12.39,2.22,2.22,0,0,1,.67,1.16,2.53,2.53,0,0,1,.77-1.13,1.79,1.79,0,0,1,1.2-.42,1.71,1.71,0,0,1,1.49.77,4.2,4.2,0,0,1,.53,2.37V37.7h-.82V33.46a3.54,3.54,0,0,0-.36-1.87,1.19,1.19,0,0,0-1.05-.54,1.27,1.27,0,0,0-1.11.6,3.21,3.21,0,0,0-.48,1.51V37.7h-.82V33.47a3.46,3.46,0,0,0-.37-1.86,1.2,1.2,0,0,0-1-.56,1.39,1.39,0,0,0-1,.39,2.21,2.21,0,0,0-.56,1.05V37.7H192V30.46Z"/></clipPath><clipPath id="clip-path-60"><path class="cls-2" d="M202.33,28.4h.82V27.27h-.82Zm0,9.3h.82V30.46h-.82Z"/></clipPath><clipPath id="clip-path-62"><path class="cls-2" d="M206.27,28.62v1.84h1.28v.69h-1.28v4.69a1.73,1.73,0,0,0,.21,1,.61.61,0,0,0,.53.3l.32,0,.35-.06.11.61a1.39,1.39,0,0,1-.42.13,2.38,2.38,0,0,1-.53.05,1.23,1.23,0,0,1-1-.48,2.55,2.55,0,0,1-.37-1.52V31.15h-1v-.69h1V28.62Z"/></clipPath><clipPath id="clip-path-64"><path class="cls-2" d="M210.28,28.62v1.84h1.28v.69h-1.28v4.69a1.73,1.73,0,0,0,.21,1,.61.61,0,0,0,.53.3l.32,0,.35-.06.11.61a1.39,1.39,0,0,1-.42.13,2.38,2.38,0,0,1-.53.05,1.23,1.23,0,0,1-1-.48,2.55,2.55,0,0,1-.37-1.52V31.15h-1v-.69h1V28.62Z"/></clipPath><clipPath id="clip-path-66"><path class="cls-2" d="M215.46,37.84a2.43,2.43,0,0,1-1.94-.88,3.31,3.31,0,0,1-.75-2.24v-1.2a3.44,3.44,0,0,1,.75-2.28,2.29,2.29,0,0,1,1.82-.91,2.14,2.14,0,0,1,1.79.81,3.41,3.41,0,0,1,.64,2.18v.79h-4.2v.6a2.88,2.88,0,0,0,.51,1.75,1.61,1.61,0,0,0,1.38.7,2.38,2.38,0,0,0,1-.21,2.26,2.26,0,0,0,.75-.59l.33.56a2.3,2.3,0,0,1-.86.67,2.86,2.86,0,0,1-1.26.25m-.12-6.8a1.47,1.47,0,0,0-1.25.69,3,3,0,0,0-.52,1.7H217v-.31a2.52,2.52,0,0,0-.42-1.49,1.4,1.4,0,0,0-1.19-.59"/></clipPath><clipPath id="clip-path-68"><path class="cls-2" d="M221.55,37.84a2.41,2.41,0,0,1-1.93-.88,3.27,3.27,0,0,1-.76-2.24v-1.2a3.45,3.45,0,0,1,.76-2.28,2.28,2.28,0,0,1,1.82-.91,2.15,2.15,0,0,1,1.79.81,3.47,3.47,0,0,1,.63,2.18v.79h-4.19v.6a2.88,2.88,0,0,0,.51,1.75,1.61,1.61,0,0,0,1.37.7,2.35,2.35,0,0,0,1-.21,2.26,2.26,0,0,0,.75-.59l.33.56a2.27,2.27,0,0,1-.85.67,2.88,2.88,0,0,1-1.27.25m-.11-6.8a1.49,1.49,0,0,0-1.26.69,2.93,2.93,0,0,0-.51,1.7h3.38v-.31a2.46,2.46,0,0,0-.43-1.49,1.38,1.38,0,0,0-1.18-.59"/></clipPath></defs><title>iasc-newcolor-logo</title><g class="cls-3"><g class="cls-4"><rect class="cls-5" x="1" y="4.66" width="16" height="38"/></g></g><g class="cls-6"><g class="cls-4"><rect class="cls-5" x="11" y="4.66" width="42" height="38"/></g></g><g class="cls-7"><g class="cls-4"><rect class="cls-5" x="43.47" y="3.89" width="33.79" height="39.23"/></g></g><g class="cls-8"><g class="cls-4"><rect class="cls-5" x="70" y="3.89" width="37.3" height="39.23"/></g></g><g class="cls-9"><g class="cls-4"><g class="cls-10"><g class="cls-11"><g class="cls-12"><g class="cls-13"><rect class="cls-5" x="113.82" y="4.37" width="10.82" height="19.74"/></g></g><g class="cls-14"><g class="cls-13"><rect class="cls-5" x="116.79" y="6.74" width="14.74" height="17.37"/></g></g><g class="cls-15"><g class="cls-13"><rect class="cls-5" x="122.72" y="5.02" width="13.35" height="19.23"/></g></g><g class="cls-16"><g class="cls-13"><rect class="cls-5" x="127.04" y="6.74" width="15" height="17.51"/></g></g><g class="cls-17"><g class="cls-13"><rect class="cls-5" x="133.46" y="6.74" width="12.95" height="17.37"/></g></g><g class="cls-18"><g class="cls-13"><rect class="cls-5" x="136.92" y="9.61" width="12.7" height="10.68"/></g></g><g class="cls-19"><g class="cls-13"><rect class="cls-5" x="140.21" y="4.37" width="16.95" height="19.74"/></g></g><g class="cls-20"><g class="cls-13"><rect class="cls-5" x="148.06" y="6.74" width="14.99" height="20.3"/></g></g><g class="cls-21"><g class="cls-13"><rect class="cls-5" x="154.56" y="6.74" width="15" height="17.51"/></g></g><g class="cls-22"><g class="cls-13"><rect class="cls-5" x="160.98" y="6.74" width="14.74" height="17.37"/></g></g><g class="cls-23"><g class="cls-13"><rect class="cls-5" x="167.23" y="6.74" width="14.97" height="17.51"/></g></g><g class="cls-24"><g class="cls-13"><rect class="cls-5" x="172.99" y="6.87" width="15.32" height="20.16"/></g></g><g class="cls-25"><g class="cls-13"><rect class="cls-5" x="113.2" y="22.82" width="15.91" height="20.02"/></g></g><g class="cls-26"><g class="cls-13"><rect class="cls-5" x="119.95" y="23.62" width="13.35" height="19.23"/></g></g><g class="cls-27"><g class="cls-13"><rect class="cls-5" x="124.34" y="25.33" width="14.91" height="17.51"/></g></g><g class="cls-28"><g class="cls-13"><rect class="cls-5" x="130.95" y="25.33" width="14.74" height="17.37"/></g></g><g class="cls-29"><g class="cls-13"><rect class="cls-5" x="137.25" y="22.27" width="14.97" height="20.58"/></g></g><g class="cls-30"><g class="cls-13"><rect class="cls-5" x="144.16" y="22.27" width="10.82" height="20.44"/></g></g><g class="cls-31"><g class="cls-13"><rect class="cls-5" x="146.9" y="25.33" width="14.74" height="17.37"/></g></g><g class="cls-32"><g class="cls-13"><rect class="cls-5" x="153.2" y="25.33" width="14.99" height="20.3"/></g></g><g class="cls-33"><g class="cls-13"><rect class="cls-5" x="162.79" y="22.82" width="15.77" height="20.02"/></g></g><g class="cls-34"><g class="cls-13"><rect class="cls-5" x="169.82" y="25.33" width="15.4" height="17.51"/></g></g><g class="cls-35"><g class="cls-13"><rect class="cls-5" x="176.7" y="25.33" width="18.47" height="17.37"/></g></g><g class="cls-36"><g class="cls-13"><rect class="cls-5" x="186.97" y="25.33" width="18.47" height="17.37"/></g></g><g class="cls-37"><g class="cls-13"><rect class="cls-5" x="197.33" y="22.27" width="10.82" height="20.44"/></g></g><g class="cls-38"><g class="cls-13"><rect class="cls-5" x="199.44" y="23.62" width="13.35" height="19.23"/></g></g><g class="cls-39"><g class="cls-13"><rect class="cls-5" x="203.45" y="23.62" width="13.35" height="19.23"/></g></g><g class="cls-40"><g class="cls-13"><rect class="cls-5" x="207.77" y="25.33" width="15" height="17.51"/></g></g><g class="cls-41"><g class="cls-13"><rect class="cls-5" x="213.86" y="25.33" width="15" height="17.51"/></g></g></g></g></g></g></svg>