<?xml version="1.0" encoding="UTF-8"?> <svg xmlns="http://www.w3.org/2000/svg" viewBox="0 0 163 70"><title>goal-logo</title><g id="Layer_3" data-name="Layer 3"><rect x="-0.91" y="-1.05" width="164.81" height="72.09" style="fill:#006e33"></rect><path d="M128.5,18.59a1,1,0,0,1,1,1V49.82H145a1,1,0,1,1,0,1.94H128.55a1,1,0,0,1-1-1V19.56a1,1,0,0,1,1-1" style="fill:#fff;fill-rule:evenodd"></path><path d="M94.54,40.59,88.26,51.24a1,1,0,0,1-1.36.36,1,1,0,0,1-.37-1.33l17.63-29.88a1.09,1.09,0,0,1,1.82,0l17.63,29.88a1,1,0,0,1-.36,1.33,1,1,0,0,1-1.36-.36l-6.28-10.65Zm10.53-17.86L95.68,38.65h18.78Z" style="fill:#fff;fill-rule:evenodd"></path><path d="M83.9,22.94a19.14,19.14,0,0,0-25.8,0A16.61,16.61,0,0,0,53,32.18a5.81,5.81,0,0,0-.13.93A16.49,16.49,0,0,0,52.74,35h0A16.45,16.45,0,0,0,58.1,47.06a19.14,19.14,0,0,0,25.8,0,16.25,16.25,0,0,0,0-24.12m-20.7,21c.73.18,1.49.35,2.27.48a21.67,21.67,0,0,0,.8,2.57,13.85,13.85,0,0,0,1.16,2.44c-.49-.35-2.2-1.35-2.2-1.35l-1.5-1.4V45.43ZM59.05,35a21.68,21.68,0,0,1,1.27-7.4,25.39,25.39,0,0,1,5-1.41A39.9,39.9,0,0,0,64.4,35a40,40,0,0,0,.93,8.81q-1.12-.2-2.16-.48v-1.4l.6-.56v-.83l-.6-.57H61.89l-.64-.59L60.09,38.3l-.9-.84A22,22,0,0,1,59.05,35m3-11.92L62,23l-1.1.7-.65.61-.52-.48.86-.8.89-.83h1.25c-.2.25-.4.5-.59.76l-.07.1m-4.54,5,.66-1.22,2-1,.31-.08c-.21.46-.41.92-.59,1.4a18.26,18.26,0,0,0-1.72.81,15.43,15.43,0,0,0-1.6,1ZM65,35a39.21,39.21,0,0,1,1-8.91,30.93,30.93,0,0,1,4.17-.37l-.72.29-.53.49.61.19H70V26l.33-.3H71l1.25,0v.22l.42.38.56-.1h.71v-.39l1,.11v.31l-.56.52h-.67l-1.06.28H72l-.41.84h-.83v1.4h-1l-.49,1.08.49.45h.9v-.55l.41-.39.49-.45.49-.28h.93l1.14,1.05v.56l.45-.42h.37l-.6-.56-.52-.49-.23-.53h.78l.61.56.41.39h.6l.32-.37.36-.33h0l.12.92h-.29l.22.62.15.09c.07.65.12,1.3.16,2l-.48-.45-1.21-.32-.41.38-1.09.32-.48-.46v-.7L72.92,31,72,30.86h-.68l-.49.46-.45.35h-.82L68.12,33l-.72,1.4-.78,1v1.32L67,38l.5.47,1,.66.49.46h1.58l1.16.1.86.8.45,1L73.31,43v1.24c-.76.05-1.53.08-2.31.08a33.09,33.09,0,0,1-5.07-.39A39.21,39.21,0,0,1,65,35m12.57-2.52c0-.52-.07-1-.11-1.54l.92.3v.49l-.49.45Zm-.17-2.56h0c-.06-.46-.12-.9-.18-1.33l.31.28h.37l.64,0,.34.32v.49h-.45ZM75,25.39l-1-.11h0l.58-.55.47.44Zm6.42,12.28h-.67v-.83L80,36.17l-.67-.8-.49-1L78,33.55v-.7l.53-.14.19.81.75.69.71.67,1.22,1.9,1-.64.45-.77h0a21.41,21.41,0,0,1-1.26,7,23.9,23.9,0,0,1-2.71.9l0,0V42.07l.71-1.5L81.41,39l.53-1.33ZM83.51,35c0-.48,0-1,0-1.41l.29-.27.58.37.45-.42.23.42v.7l1.16.49v2.55l.64.59L87,36.41A7.59,7.59,0,0,0,87.42,35c0-.42.6,0,.6,0l.45,1s0,.19,0,.45c-.56,2-2.34,3.78-4.92,5.16-.39.2-.79.4-1.2.58A22.26,22.26,0,0,0,83.51,35M81.94,22l-1.13.61H79.63A12.72,12.72,0,0,0,75.34,19a18.11,18.11,0,0,1,6.6,3m-3,.67-.33.3-.6.56-.75.7h-1l-.09,0c-.12-.42-.26-.82-.4-1.2A10.11,10.11,0,0,0,73,18.73a11,11,0,0,1,5.95,4m-3.75.53c.1.27.19.54.29.83L75.21,24l-1.31-.42-.71.67-.94.87v.07l-1.25,0a34,34,0,0,0-4.93.36q.33-1.23.72-2.28C67.9,20.3,69.39,18.5,71,18.5s3.11,1.8,4.21,4.73M66.27,23a21.67,21.67,0,0,0-.8,2.57,27.14,27.14,0,0,0-4.88,1.29c.18-.44.38-.87.59-1.29l.52-.14,1.06-1.73-.3-.28.12-.17c.27-.37.56-.73.86-1.07h.36l.78-.72.15-.55a12.66,12.66,0,0,1,1-.78h.76l.91-.84.15-.15A10,10,0,0,1,69,18.73,10.1,10.1,0,0,0,66.27,23m-13,12h0v-.11l.49-1.3L54,32.49a7.4,7.4,0,0,1,.85-1.24v0l.6.56V30.61a12.94,12.94,0,0,1,3-2.14c.39-.2.79-.4,1.2-.58A22.26,22.26,0,0,0,58.49,35c0,.47,0,.94,0,1.4l0,0-.34-.31-.73-.68-.56.77-.3.41v2l.52,1.54.43,1c-2.62-1.62-4.2-3.72-4.2-6Zm5.17,11.67A16.17,16.17,0,0,1,53.6,38a11.12,11.12,0,0,0,4.29,3.87l.1.2,2,2.45,2.18,2.65.07,0A12.71,12.71,0,0,0,66.66,51a18,18,0,0,1-8.18-4.33m5,1.19,1.22.64,2.31,1.63s1.33,1.2,1.33.6c0,0,0,0,0,0a5.55,5.55,0,0,0,.62.58,10.69,10.69,0,0,1-5.47-3.41m3.27-1.09q-.39-1.05-.72-2.28a34,34,0,0,0,4.93.36c.78,0,1.55,0,2.31-.08v1.7l1,.5.63.57c-1.07,2.47-2.43,4-3.9,4s-3.1-1.8-4.21-4.73m8.95.19v0l1.09-.89,1.43-2a24.78,24.78,0,0,0,3.15-.94,16.93,16.93,0,0,1-2,3.61A11.31,11.31,0,0,1,73,51.27,10.11,10.11,0,0,0,75.74,47m11.78-6H86.37l-.45.93-.53-.14v.84l-.45.42.61.56.1.72a17.33,17.33,0,0,1-2.13,2.41A18,18,0,0,1,75.34,51a12.75,12.75,0,0,0,4.54-4,17.71,17.71,0,0,0,2.25-4.2q.9-.37,1.71-.81a11.23,11.23,0,0,0,4.56-4,16.24,16.24,0,0,1-.88,2.93" style="fill:#fff"></path><path d="M34,18.58a17.07,17.07,0,0,1,11.6,4.5,1.07,1.07,0,0,1,.4.78,1,1,0,0,1-1,1,1.1,1.1,0,0,1-.77-.33,15.08,15.08,0,0,0-10.24-4,14.65,14.65,0,1,0,0,29.29A14.94,14.94,0,0,0,48.08,40H34A1,1,0,1,1,34,38H49.42a1,1,0,0,1,1,1,2.09,2.09,0,0,1-.13.62A17,17,0,0,1,17,35.17,16.78,16.78,0,0,1,34,18.58" style="fill:#fff;fill-rule:evenodd"></path></g></svg> 